<?xml version="1.0" encoding="iso-8859-1"?>
<!-- Generator: Adobe Illustrator 19.0.0, SVG Export Plug-In . SVG Version: 6.00 Build 0)  -->
<svg version="1.1" id="Capa_1" xmlns="http://www.w3.org/2000/svg" xmlns:xlink="http://www.w3.org/1999/xlink" x="0px" y="0px"
	 viewBox="0 0 512.057 512.057" style="enable-background:new 0 0 512.057 512.057;" xml:space="preserve">
<g transform="translate(-1 -1)">
	<g transform="translate(1 2)">
		<path id="SVGCleanerId_0" style="fill:#283593;" d="M315.769,485.457v17.067h-153.6v-17.067
			c0.027-9.414,7.652-17.039,17.067-17.067h119.467C308.117,468.418,315.742,476.043,315.769,485.457z"/>
		<path id="SVGCleanerId_1" style="fill:#283593;" d="M298.703,451.324v17.067H179.236v-17.067
			c0.027-9.414,7.652-17.039,17.067-17.067h85.333C291.05,434.285,298.675,441.91,298.703,451.324z"/>
		<rect id="SVGCleanerId_2" x="204.836" y="280.657" style="fill:#607D8B;" width="68.267" height="153.6"/>
		<path style="fill:#607D8B;" d="M290.169,263.591c-0.068,9.397-7.669,16.998-17.067,17.067h-68.267
			c-9.414-0.028-17.039-7.652-17.067-17.067c0.068-9.397,7.669-16.999,17.067-17.067h68.267
			C282.517,246.551,290.142,254.176,290.169,263.591z"/>
		<rect id="SVGCleanerId_3" x="204.836" y="144.124" style="fill:#607D8B;" width="68.267" height="102.4"/>
		<g>
			<path style="fill:#607D8B;" d="M298.703,127.057c-0.068,9.397-7.669,16.998-17.067,17.067h-85.333
				c-9.414-0.028-17.039-7.653-17.067-17.067c0.068-9.397,7.669-16.999,17.067-17.067h85.333
				C291.05,110.018,298.675,117.643,298.703,127.057z"/>
			<path style="fill:#607D8B;" d="M264.569,64.252v45.739h-51.2V64.252c6.463,7.376,15.793,11.605,25.6,11.605
				C248.776,75.857,258.106,71.628,264.569,64.252z"/>
			<path style="fill:#607D8B;" d="M273.103,41.724c-0.007,5.995-1.596,11.883-4.608,17.067c-1.103,1.96-2.42,3.791-3.925,5.461
				c-10.868,12.277-28.956,15.037-42.991,6.56c-14.035-8.477-20.011-25.771-14.203-41.105c5.808-15.334,21.741-24.329,37.871-21.38
				S273.095,25.327,273.103,41.724z"/>
			<path style="fill:#607D8B;" d="M204.836,169.724v51.2h-68.267c-14.121,0.041-25.559,11.479-25.6,25.6h-51.2
				c0.064-42.389,34.411-76.736,76.8-76.8H204.836z"/>
			<path style="fill:#607D8B;" d="M401.103,195.324c-0.021,14.13-11.47,25.579-25.6,25.6h-102.4v-51.2l102.4,0
				c6.792-0.009,13.309,2.685,18.112,7.488C398.417,182.015,401.112,188.532,401.103,195.324z"/>
			<path style="fill:#607D8B;" d="M460.836,314.791c-0.028,9.414-7.653,17.039-17.067,17.067h-25.6
				c-47.096-0.077-85.256-38.237-85.333-85.333v-25.6h34.133v25.6c0.022,28.268,22.932,51.178,51.2,51.2h25.6
				C453.183,297.751,460.808,305.376,460.836,314.791z"/>
			<path style="fill:#607D8B;" d="M366.969,109.991v59.733h-34.133v-59.733c-0.022-28.268-22.932-51.178-51.2-51.2h-13.141
				c6.144-10.548,6.144-23.585,0-34.133h13.141C328.732,24.735,366.892,62.894,366.969,109.991z"/>
		</g>
		<g>
			<path id="SVGCleanerId_0_1_" style="fill:#283593;" d="M315.769,485.457v17.067h-153.6v-17.067
				c0.027-9.414,7.652-17.039,17.067-17.067h119.467C308.117,468.418,315.742,476.043,315.769,485.457z"/>
		</g>
		<g>
			<path id="SVGCleanerId_1_1_" style="fill:#283593;" d="M298.703,451.324v17.067H179.236v-17.067
				c0.027-9.414,7.652-17.039,17.067-17.067h85.333C291.05,434.285,298.675,441.91,298.703,451.324z"/>
		</g>
		<path id="SVGCleanerId_4" style="fill:#3F51B5;" d="M290.169,485.457v17.067h-128v-17.067c0.027-9.414,7.652-17.039,17.067-17.067
			h93.867C282.517,468.418,290.142,476.043,290.169,485.457z"/>
		<path id="SVGCleanerId_5" style="fill:#3F51B5;" d="M273.103,451.324v17.067h-93.867v-17.067
			c0.027-9.414,7.652-17.039,17.067-17.067h59.733C265.45,434.285,273.075,441.91,273.103,451.324z"/>
		<g>
			<path id="SVGCleanerId_4_1_" style="fill:#3F51B5;" d="M290.169,485.457v17.067h-128v-17.067
				c0.027-9.414,7.652-17.039,17.067-17.067h93.867C282.517,468.418,290.142,476.043,290.169,485.457z"/>
		</g>
		<g>
			<path id="SVGCleanerId_5_1_" style="fill:#3F51B5;" d="M273.103,451.324v17.067h-93.867v-17.067
				c0.027-9.414,7.652-17.039,17.067-17.067h59.733C265.45,434.285,273.075,441.91,273.103,451.324z"/>
		</g>
		<g>
			<rect id="SVGCleanerId_2_1_" x="204.836" y="280.657" style="fill:#607D8B;" width="68.267" height="153.6"/>
		</g>
		<path style="fill:#3F51B5;" d="M290.169,263.591c-0.068,9.397-7.669,16.998-17.067,17.067h-68.267
			c-9.414-0.028-17.039-7.652-17.067-17.067c0.068-9.397,7.669-16.999,17.067-17.067h68.267
			C282.517,246.551,290.142,254.176,290.169,263.591z"/>
		<g>
			<rect id="SVGCleanerId_3_1_" x="204.836" y="144.124" style="fill:#607D8B;" width="68.267" height="102.4"/>
		</g>
		<g>
			<path style="fill:#3F51B5;" d="M298.703,127.057c-0.068,9.397-7.669,16.998-17.067,17.067h-85.333
				c-9.414-0.028-17.039-7.653-17.067-17.067c0.068-9.397,7.669-16.999,17.067-17.067h85.333
				C291.05,110.018,298.675,117.643,298.703,127.057z"/>
			<g>
				<path style="fill:#CFD8DC;" d="M264.569,64.252v45.739h-51.2V64.252c6.463,7.376,15.793,11.605,25.6,11.605
					C248.776,75.857,258.106,71.628,264.569,64.252z"/>
				<rect x="204.836" y="280.657" style="fill:#CFD8DC;" width="42.667" height="153.6"/>
				<rect x="204.836" y="144.124" style="fill:#CFD8DC;" width="42.667" height="102.4"/>
			</g>
			<g>
				<path style="fill:#3F51B5;" d="M273.103,41.724c-0.007,5.995-1.596,11.883-4.608,17.067c-1.103,1.96-2.42,3.791-3.925,5.461
					c-10.868,12.277-28.956,15.037-42.991,6.56c-14.035-8.477-20.011-25.771-14.203-41.105c5.808-15.334,21.741-24.329,37.871-21.38
					S273.095,25.327,273.103,41.724z"/>
				<path style="fill:#3F51B5;" d="M204.836,169.724v51.2h-68.267c-14.121,0.041-25.559,11.479-25.6,25.6h-51.2
					c0.064-42.389,34.411-76.736,76.8-76.8H204.836z"/>
			</g>
			<path style="fill:#283593;" d="M401.103,195.324c-0.021,14.13-11.47,25.579-25.6,25.6h-102.4v-51.2l102.4,0
				c6.792-0.009,13.309,2.685,18.112,7.488C398.417,182.015,401.112,188.532,401.103,195.324z"/>
			<path style="fill:#3F51B5;" d="M375.503,195.324c-0.021,14.13-11.47,25.579-25.6,25.6h-76.8v-51.2l76.8,0
				c6.792-0.009,13.309,2.685,18.112,7.488C372.817,182.015,375.512,188.532,375.503,195.324z"/>
		</g>
		<path style="fill:#02A9F4;" d="M119.503,355.068c0.628,19.499-14.636,35.832-34.133,36.523
			c-19.497-0.69-34.762-17.023-34.133-36.523c0-22.357,34.133-74.411,34.133-74.411S119.503,332.711,119.503,355.068z"/>
		<g>
			<path style="fill:#CFD8DC;" d="M460.836,314.791c-0.028,9.414-7.653,17.039-17.067,17.067h-25.6
				c-47.096-0.077-85.256-38.237-85.333-85.333v-25.6h34.133v25.6c0.022,28.268,22.932,51.178,51.2,51.2h25.6
				C453.183,297.751,460.808,305.376,460.836,314.791z"/>
			<path style="fill:#CFD8DC;" d="M366.969,109.991v59.733h-34.133v-59.733c-0.022-28.268-22.932-51.178-51.2-51.2h-13.141
				c6.144-10.548,6.144-23.585,0-34.133h13.141C328.732,24.735,366.892,62.894,366.969,109.991z"/>
		</g>
	</g>
	<g>
		<path d="M60.769,257.057h51.2c2.263,0.001,4.434-0.898,6.035-2.499c1.6-1.6,2.499-3.771,2.499-6.035
			c0.011-9.421,7.645-17.056,17.067-17.067h59.733v10.106c-10.22,3.564-17.067,13.203-17.067,24.027
			c0,10.824,6.847,20.463,17.067,24.027v138.106c-14.132,0.015-25.585,11.468-25.6,25.6v10.106
			c-10.199,3.592-17.033,13.214-17.067,24.028v17.067c-0.001,2.263,0.898,4.434,2.499,6.035c1.6,1.6,3.771,2.499,6.035,2.499h153.6
			c2.263,0.001,4.434-0.898,6.035-2.499c1.6-1.6,2.499-3.771,2.499-6.035v-17.067c-0.033-10.813-6.868-20.435-17.067-24.028v-10.106
			c-0.015-14.132-11.468-25.585-25.6-25.6V289.618c10.22-3.565,17.067-13.204,17.067-24.028s-6.847-20.463-17.067-24.028v-10.106
			h42.667v17.067c0.059,51.817,42.05,93.808,93.867,93.867h25.6c14.138,0,25.6-11.462,25.6-25.6c0-14.138-11.462-25.6-25.6-25.6
			h-25.6c-23.553-0.028-42.639-19.114-42.667-42.667v-17.067c18.851,0,34.133-15.282,34.133-34.133s-15.282-34.133-34.133-34.133
			v-51.2c-0.059-51.817-42.05-93.808-93.867-93.867h-8.752c-9.083-12.202-23.993-18.619-39.099-16.827
			c-15.105,1.792-28.101,11.519-34.077,25.507s-4.021,30.103,5.127,42.256v34.397h-8.533c-14.138,0-25.6,11.462-25.6,25.6
			s11.462,25.6,25.6,25.6v8.533h-59.733c-47.106,0.054-85.279,38.227-85.333,85.333c-0.001,2.263,0.898,4.434,2.499,6.035
			C56.335,256.159,58.506,257.058,60.769,257.057z M308.236,495.991H171.703v-8.533c0.005-4.711,3.822-8.529,8.533-8.533h119.467
			c4.711,0.005,8.529,3.822,8.533,8.533V495.991z M291.169,453.324v8.533h-102.4v-8.533c0.005-4.711,3.822-8.529,8.533-8.533h85.333
			C287.347,444.795,291.164,448.613,291.169,453.324z M214.369,427.724V291.191h51.2v136.533H214.369z M274.103,274.124h-68.267
			c-4.713,0-8.533-3.82-8.533-8.533s3.821-8.533,8.533-8.533h68.267c4.713,0,8.533,3.82,8.533,8.533
			S278.815,274.124,274.103,274.124z M308.236,129.057c-0.015-14.132-11.468-25.585-25.6-25.6h-8.533V69.324h8.533
			c23.553,0.028,42.639,19.114,42.667,42.667v51.2h-42.667v-8.533C296.768,154.642,308.22,143.189,308.236,129.057z
			 M419.169,308.257h25.6c4.713,0,8.533,3.821,8.533,8.533c0,4.713-3.82,8.533-8.533,8.533h-25.6
			c-42.396-0.048-76.752-34.404-76.8-76.8v-17.067h17.067v17.067C359.474,281.498,386.195,308.219,419.169,308.257z
			 M393.569,197.324c-0.011,9.421-7.645,17.056-17.067,17.067h-93.867v-34.133h93.867
			C385.924,180.268,393.558,187.903,393.569,197.324z M282.636,35.191c42.396,0.048,76.752,34.404,76.8,76.8v51.2h-17.067v-51.2
			c-0.038-32.974-26.759-59.695-59.733-59.733h-0.862c1.15-5.631,1.15-11.436,0-17.067H282.636z M239.969,18.124
			c14.138,0,25.6,11.462,25.6,25.6s-11.462,25.6-25.6,25.6c-14.139,0-25.6-11.462-25.6-25.6
			C214.385,29.592,225.837,18.139,239.969,18.124z M222.903,82.774c10.867,4.822,23.266,4.822,34.133,0v20.683h-34.133V82.774z
			 M188.769,129.057c0.005-4.711,3.822-8.529,8.533-8.533h85.333c4.713,0,8.533,3.821,8.533,8.533s-3.82,8.533-8.533,8.533h-85.333
			C192.592,137.586,188.774,133.768,188.769,129.057z M265.569,154.657v85.333h-51.2v-85.333H265.569z M137.569,180.257h59.733
			v34.133h-59.733c-15.558,0.019-29.142,10.54-33.05,25.6H69.836C74.178,205.879,103.182,180.3,137.569,180.257z"/>
		<path d="M86.369,402.124c24.204-0.706,43.281-20.851,42.667-45.058c0-24.175-31.892-73.538-35.533-79.088
			c-1.669-2.268-4.318-3.606-7.133-3.606s-5.464,1.339-7.133,3.606c-3.642,5.55-35.533,54.912-35.533,79.088
			C43.088,381.273,62.165,401.418,86.369,402.124z M86.369,298.736c11.9,19.8,25.6,46.442,25.6,58.329
			c0.613,14.782-10.822,27.286-25.6,27.992c-14.778-0.706-26.213-13.21-25.6-27.992C60.769,345.178,74.469,318.536,86.369,298.736z"
			/>
	</g>
</g>
<g>
</g>
<g>
</g>
<g>
</g>
<g>
</g>
<g>
</g>
<g>
</g>
<g>
</g>
<g>
</g>
<g>
</g>
<g>
</g>
<g>
</g>
<g>
</g>
<g>
</g>
<g>
</g>
<g>
</g>
</svg>
