<svg height="495pt" viewBox="-71 0 495 495.90069" width="495pt" xmlns="http://www.w3.org/2000/svg"><path d="m344.449219 175.902344c.011719 61.691406-33.765625 118.433594-88 147.839844v68.160156h-160v-68.160156c-72.234375-39.082032-105.636719-124.652344-78.984375-202.335938 26.65625-77.683594 105.558594-124.71875 186.570312-111.214844 81.011719 13.5 140.394532 83.578125 140.414063 165.710938zm0 0" fill="#ffeb99"/><path d="m88.449219 391.902344h176c8.835937 0 16 7.160156 16 16 0 8.835937-7.164063 16-16 16h-176c-8.835938 0-16-7.164063-16-16 0-8.839844 7.164062-16 16-16zm0 0" fill="#c6c5ca"/><path d="m88.449219 423.902344h176c8.835937 0 16 7.160156 16 16 0 8.835937-7.164063 16-16 16h-176c-8.835938 0-16-7.164063-16-16 0-8.839844 7.164062-16 16-16zm0 0" fill="#898890"/><path d="m88.449219 455.902344h176c8.835937 0 16 7.160156 16 16 0 8.835937-7.164063 16-16 16h-176c-8.835938 0-16-7.164063-16-16 0-8.839844 7.164062-16 16-16zm0 0" fill="#c6c5ca"/><path d="m133.90625 206.445312c28.121094 28.121094 39.511719 62.3125 25.457031 76.367188-14.058593 14.054688-48.25 2.664062-76.367187-25.457031-28.121094-28.117188-25.457032-76.367188-25.457032-76.367188s48.246094-2.6875 76.367188 25.457031zm0 0" fill="#91cc04"/><path d="m216.945312 206.445312c-28.109374 28.121094-39.511718 62.3125-25.453124 76.367188 14.054687 14.054688 48.253906 2.664062 76.367187-25.457031 28.109375-28.117188 25.453125-76.367188 25.453125-76.367188s-48.246094-2.6875-76.367188 25.457031zm0 0" fill="#91cc04"/><g fill="#231f20"><path d="m352.449219 175.902344c-.046875-85.402344-61.394531-158.441406-145.503907-173.238282-84.105468-14.800781-166.699218 32.917969-195.890624 113.171876-29.195313 80.253906 3.4375 169.886718 77.394531 212.585937v55.480469c-9.484375-.042969-18.09375 5.527344-21.945313 14.195312-3.847656 8.671875-2.207031 18.796875 4.1875 25.804688-8.320312 9.042968-8.320312 22.953125 0 32-6.394531 7.003906-8.035156 17.128906-4.1875 25.800781 3.851563 8.667969 12.460938 14.238281 21.945313 14.199219h176c9.484375.039062 18.097656-5.53125 21.945312-14.199219 3.851563-8.671875 2.207031-18.796875-4.183593-25.800781 8.320312-9.046875 8.320312-22.957032 0-32 6.390624-7.007813 8.035156-17.132813 4.183593-25.804688-3.847656-8.667968-12.460937-14.238281-21.945312-14.195312v-55.480469c54.464843-31.480469 88.003906-89.617187 88-152.519531zm-80 264c0 4.417968-3.582031 8-8 8h-176c-4.417969 0-8-3.582032-8-8 0-4.421875 3.582031-8 8-8h176c4.417969 0 8 3.578125 8 8zm-8 40h-176c-4.417969 0-8-3.582032-8-8 0-4.421875 3.582031-8 8-8h176c4.417969 0 8 3.578125 8 8 0 4.417968-3.582031 8-8 8zm8-72c0 4.417968-3.582031 8-8 8h-176c-4.417969 0-8-3.582032-8-8 0-4.421875 3.582031-8 8-8h176c4.417969 0 8 3.578125 8 8zm-49.839844-195.800782c18.890625-18.890624 48.738281-22.464843 62.664063-23.058593-.605469 13.921875-4.175782 43.761719-23.0625 62.65625-22.265626 22.257812-46.121094 31.5625-58.855469 28.609375l30.75-30.753906c3.03125-3.136719 2.988281-8.125-.097657-11.210938-3.085937-3.085938-8.074218-3.132812-11.214843-.097656l-29.292969 29.292968c-.816406-13.300781 8.710938-35.046874 29.109375-55.4375zm30.015625 104.597657c-2.578125 1.402343-4.179688 4.105469-4.175781 7.042969v60.160156h-64v-97.089844c.464843.550781.875 1.144531 1.386719 1.65625 5.988281 5.640625 14.011718 8.609375 22.230468 8.230469 19.105469 0 43.855469-12.070313 65.457032-33.671875 30.292968-30.292969 27.894531-80.34375 27.773437-82.460938-.222656-4.070312-3.472656-7.320312-7.542969-7.546875-2.09375-.109375-52.152344-2.527343-82.464844 27.785157-16.027343 14.972656-27.375 34.265624-32.671874 55.550781-.695313-.257813-1.425782-.410157-2.167969-.453125-1.457031.035156-2.871094.480468-4.085938 1.285156-5.117187-21.628906-16.53125-41.253906-32.800781-56.398438-30.304688-30.296874-80.359375-27.886718-82.464844-27.785156-4.070312.226563-7.316406 3.476563-7.542968 7.542969-.121094 2.121094-2.511719 52.167969 27.785156 82.464844 21.597656 21.601562 46.34375 33.671875 65.445312 33.671875 8.21875.382812 16.238282-2.582032 22.234375-8.214844 1.296875-1.328125 2.445313-2.792969 3.429688-4.367188v99.800782h-64v-60.160156c0-2.929688-1.601563-5.625-4.175781-7.027344-64.398438-34.863282-96.90625-109.003906-78.921876-179.992188 17.980469-70.988281 81.867188-120.707031 155.097657-120.707031 73.234375 0 137.117187 49.71875 155.101562 120.707031 17.984375 70.988282-14.523437 145.128906-78.925781 179.992188zm-96.175781-44.117188-34.335938-34.335937c-3.136719-3.035156-8.128906-2.988282-11.214843.097656-3.085938 3.085938-3.128907 8.074219-.097657 11.210938l31.28125 31.28125c-13.414062-.191407-34.023437-9.734376-53.421875-29.136719-18.890625-18.894531-22.464844-48.734375-23.066406-62.65625 13.929688.59375 43.769531 4.167969 62.664062 23.058593 23.214844 23.222657 32.382813 48.222657 28.191407 60.480469zm0 0"/><path d="m302.363281 152.742188c1.15625 5.089843 1.914063 10.265624 2.261719 15.476562.171875 4.292969 3.703125 7.683594 8 7.683594h.328125c4.414063-.179688 7.847656-3.898438 7.671875-8.3125-.382812-6.058594-1.242188-12.078125-2.566406-18-.871094-4.332032-5.09375-7.136719-9.425782-6.265625-4.332031.871093-7.136718 5.09375-6.261718 9.425781zm0 0"/><path d="m306.570312 135.386719c4.132813-1.558594 6.21875-6.175781 4.65625-10.308594-21.34375-55.9375-74.910156-92.96875-134.777343-93.175781-4.417969 0-8 3.578125-8 8 0 4.417968 3.582031 8 8 8 53.222656.179687 100.839843 33.097656 119.808593 82.820312 1.175782 3.113282 4.152344 5.175782 7.480469 5.179688.964844-.003906 1.925781-.179688 2.832031-.515625zm0 0"/><path d="m248.449219 231.902344c2.121093-.003906 4.15625-.84375 5.65625-2.347656l8-8c3.03125-3.136719 2.988281-8.125-.097657-11.210938-3.085937-3.085938-8.074218-3.132812-11.214843-.097656l-8 8c-2.285157 2.285156-2.96875 5.726562-1.730469 8.714844 1.238281 2.988281 4.152344 4.9375 7.386719 4.941406zm0 0"/></g></svg>